<?xml version="1.0" encoding="UTF-8" standalone="no"?>
<svg
   color="white"
   width="24"
   height="24"
   viewBox="0 0 24 24"
   version="1.1"
   id="svg4"
   sodipodi:docname="github.invert.svg"
   inkscape:version="1.2 (dc2aedaf03, 2022-05-15)"
   xmlns:inkscape="http://www.inkscape.org/namespaces/inkscape"
   xmlns:sodipodi="http://sodipodi.sourceforge.net/DTD/sodipodi-0.dtd"
   xmlns="http://www.w3.org/2000/svg"
   xmlns:svg="http://www.w3.org/2000/svg">
  <defs
     id="defs8" />
  <sodipodi:namedview
     id="namedview6"
     pagecolor="#ffffff"
     bordercolor="#666666"
     borderopacity="1.0"
     inkscape:showpageshadow="2"
     inkscape:pageopacity="0.0"
     inkscape:pagecheckerboard="0"
     inkscape:deskcolor="#d1d1d1"
     showgrid="false"
     inkscape:zoom="42.791667"
     inkscape:cx="12"
     inkscape:cy="11.976631"
     inkscape:window-width="2170"
     inkscape:window-height="1394"
     inkscape:window-x="10"
     inkscape:window-y="32"
     inkscape:window-maximized="1"
     inkscape:current-layer="svg4" />
  <path
     d="M12 0c-6.626 0-12 5.373-12 12 0 5.302 3.438 9.8 8.207 11.387.599.111.793-.261.793-.577v-2.234c-3.338.726-4.033-1.416-4.033-1.416-.546-1.387-1.333-1.756-1.333-1.756-1.089-.745.083-.729.083-.729 1.205.084 1.839 1.237 1.839 1.237 1.07 1.834 2.807 1.304 3.492.997.107-.775.418-1.305.762-1.604-2.665-.305-5.467-1.334-5.467-5.931 0-1.311.469-2.381 1.236-3.221-.124-.303-.535-1.524.117-3.176 0 0 1.008-.322 3.301 1.23.957-.266 1.983-.399 3.003-.404 1.02.005 2.047.138 3.006.404 2.291-1.552 3.297-1.23 3.297-1.23.653 1.653.242 2.874.118 3.176.77.84 1.235 1.911 1.235 3.221 0 4.609-2.807 5.624-5.479 5.921.43.372.823 1.102.823 2.222v3.293c0 .319.192.694.801.576 4.765-1.589 8.199-6.086 8.199-11.386 0-6.627-5.373-12-12-12z"
     id="path2" />
  <path
     d="M 8.2609542,23.38077 C 8.046559,23.341702 7.1516906,22.978634 6.6502495,22.727269 3.7881595,21.292547 1.6007497,18.75817 0.6056539,15.723879 -0.3920984,12.681487 -0.12108949,9.3381927 1.3536218,6.496592 2.9384294,3.4428484 5.7667366,1.2012115 9.0773048,0.37501781 9.9833868,0.14889367 10.765209,0.04406168 11.731256,0.01915815 c 3.822596,-0.09854192 7.49013,1.67159385 9.813406,4.73644065 1.901574,2.5085422 2.736425,5.6099762 2.349511,8.7283352 -0.519739,4.188889 -3.20985,7.788643 -7.103521,9.505533 -0.404573,0.178395 -0.920607,0.367613 -1.078628,0.395509 -0.273123,0.04822 -0.52441,-0.06216 -0.630052,-0.276742 l -0.05568,-0.113103 -0.01317,-1.974683 c -0.01132,-1.697447 -0.0186,-2.00431 -0.05185,-2.185702 -0.108787,-0.593603 -0.330233,-1.088258 -0.628262,-1.40338 l -0.117005,-0.123716 0.07798,-0.01251 c 0.04289,-0.0069 0.230461,-0.03435 0.416829,-0.06104 2.197376,-0.314667 3.624448,-1.220813 4.360316,-2.768665 0.278673,-0.586171 0.456549,-1.262272 0.550262,-2.091528 0.04671,-0.413366 0.0405,-1.494952 -0.01027,-1.787732 -0.151024,-0.8708938 -0.486859,-1.6180706 -1.007203,-2.2408605 -0.08473,-0.1014121 -0.153797,-0.1960566 -0.15348,-0.2103213 3.15e-4,-0.014265 0.02071,-0.0861 0.04532,-0.1596339 0.194356,-0.5807444 0.226528,-1.4013074 0.08278,-2.1112704 -0.07075,-0.3494347 -0.231538,-0.8520365 -0.28546,-0.8923245 -0.05472,-0.040887 -0.41578,-0.037233 -0.667244,0.00675 -0.670588,0.1173009 -1.444699,0.45936 -2.36469,1.0448939 l -0.25591,0.1628749 -0.367759,-0.084838 C 12.902537,5.7012187 11.079097,5.6970401 9.4239047,6.0895004 9.2534155,6.1299248 9.0868961,6.1679902 9.0538619,6.1740902 9.0085783,6.1824521 8.9367017,6.1482216 8.7617489,6.0349748 7.8877017,5.4692044 7.0432618,5.0955543 6.3741794,4.9785165 6.1413011,4.9377808 5.7790116,4.930982 5.7133641,4.9661155 5.6840822,4.9817868 5.6379288,5.0862104 5.5755776,5.277862 5.3788291,5.8826192 5.2967285,6.5125426 5.3400755,7.0847724 c 0.023923,0.3158106 0.1119321,0.782082 0.1773322,0.939503 0.018006,0.043342 0.032738,0.091819 0.032738,0.1077276 0,0.015908 -0.069325,0.1118974 -0.1540553,0.2133095 -0.5201382,0.6225432 -0.8545806,1.3663609 -1.0075574,2.2408605 -0.058112,0.332199 -0.057493,1.428521 0.00107,1.892892 0.2181025,1.729488 0.8587415,2.925657 1.9901454,3.715899 0.5957076,0.416079 1.2874575,0.706173 2.1658804,0.908289 0.3368789,0.07751 1.0671496,0.201518 1.1867427,0.201518 0.049124,0 0.043242,0.0118 -0.061153,0.122688 -0.2879589,0.305867 -0.4833544,0.716832 -0.5949855,1.2514 -0.025941,0.124224 -0.049105,0.227229 -0.051475,0.228899 -0.042753,0.03012 -0.4496548,0.164881 -0.628929,0.20829 C 7.563177,19.317664 6.8460778,19.185252 6.2603276,18.72173 6.0142518,18.527002 5.8398001,18.321792 5.5618215,17.900067 5.133851,17.250789 4.6497572,16.868544 4.0683164,16.720782 c -0.3207694,-0.08152 -0.7326569,-0.0526 -0.8572837,0.06019 -0.05257,0.04757 -0.057612,0.150288 -0.011731,0.239012 0.04935,0.09543 0.2651721,0.289798 0.4599566,0.414229 0.2336011,0.149228 0.4117201,0.30641 0.5905007,0.521091 0.2792525,0.335328 0.4014038,0.547516 0.7613199,1.322481 0.1259566,0.271207 0.2564152,0.451276 0.4853534,0.669921 0.410937,0.392461 0.8751485,0.615896 1.5321378,0.737452 0.32333,0.05982 1.0721686,0.05464 1.4894435,-0.01031 0.1735151,-0.02701 0.3496592,-0.05626 0.3914314,-0.06499 l 0.075949,-0.01589 v 1.16721 c 0,1.299301 -8.53e-4,1.307379 -0.1547818,1.465874 -0.1339936,0.13797 -0.3444454,0.194759 -0.5696584,0.153723 z"
     id="path183"
     style="stroke-width:0.023369;fill:#000000" />
  <path
     style="fill:#ffffff;stroke-width:0.023369"
     d="M 8.2609542,23.381101 C 8.2031159,23.370744 8.0033106,23.304605 7.8169426,23.234126 6.1775399,22.61415 4.7514941,21.695861 3.5278166,20.472183 1.0887073,18.033074 -0.17996969,14.682998 0.03619669,11.252191 0.31852529,6.7713135 3.0670652,2.841575 7.1939145,1.0184086 9.1426409,0.15749703 11.359501,-0.16328751 13.495618,0.10653807 16.507645,0.4870048 19.253023,1.9895663 21.205074,4.325968 c 2.652391,3.1746356 3.476353,7.507829 2.175205,11.439348 -1.001348,3.02565 -3.176136,5.532761 -6.045878,6.969733 -0.581357,0.291104 -1.413925,0.622445 -1.648565,0.656087 -0.256197,0.03673 -0.503556,-0.07915 -0.603864,-0.282902 l -0.05568,-0.113103 -0.01305,-1.974683 c -0.0117,-1.770616 -0.01741,-1.997626 -0.0552,-2.196689 -0.115512,-0.608369 -0.325599,-1.070526 -0.639398,-1.406574 l -0.102336,-0.109591 0.07783,-0.01271 c 0.04281,-0.007 0.198762,-0.02951 0.346571,-0.05005 1.071759,-0.148895 2.044093,-0.466667 2.745862,-0.897383 1.373847,-0.843209 2.109031,-2.240097 2.257325,-4.28903 0.03223,-0.445306 0.01507,-1.144083 -0.03612,-1.470862 C 19.478,9.7591376 19.126087,8.974296 18.601468,8.3432741 18.518088,8.2429821 18.450124,8.1492539 18.450441,8.1349892 c 3.15e-4,-0.014265 0.02168,-0.089032 0.04748,-0.1661499 0.189701,-0.567099 0.221513,-1.4074827 0.07981,-2.1083381 -0.06999,-0.3461478 -0.230911,-0.8485886 -0.284651,-0.8887408 -0.05357,-0.040028 -0.387761,-0.037354 -0.65014,0.0052 -0.659635,0.1069895 -1.50416,0.4786934 -2.378384,1.0468071 l -0.2525,0.1640863 -0.371169,-0.085625 C 12.916694,5.7044845 11.145725,5.6964096 9.479029,6.0786978 9.2782212,6.1247568 9.087231,6.1675088 9.0546064,6.173702 9.0095745,6.1822507 8.9251532,6.1406136 8.7040709,6.0008163 7.7866374,5.4206937 7.0135471,5.0834416 6.3570747,4.9769651 6.0946955,4.9344086 5.7605087,4.9317343 5.7069348,4.9717624 5.6532021,5.011909 5.4922808,5.5143159 5.4222707,5.8605032 5.2775993,6.5758766 5.308417,7.3898559 5.5020937,7.9688413 c 0.025797,0.077118 0.047162,0.1520712 0.047478,0.166563 3.155e-4,0.014492 -0.064399,0.1038782 -0.1438109,0.1986368 C 5.007561,8.809193 4.6809878,9.4296498 4.5111463,10.03372 c -0.2480151,0.882109 -0.2302665,2.24171 0.043819,3.356738 0.4807918,1.955939 1.7102083,3.141613 3.8038853,3.668543 0.3256611,0.08196 0.9810455,0.203092 1.2747828,0.235609 l 0.1458055,0.01614 -0.1288464,0.13917 c -0.2840632,0.306822 -0.4794461,0.743531 -0.5944237,1.328621 l -0.025557,0.130052 -0.2270883,0.08336 C 7.819512,19.353192 6.9402375,19.259764 6.2603276,18.72173 6.0231844,18.534071 5.829191,18.309835 5.6042412,17.963362 5.5078567,17.814909 5.3694978,17.620621 5.2967769,17.53161 5.0137332,17.185163 4.5482907,16.864529 4.1480039,16.740245 4.0057935,16.69609 3.9198445,16.685794 3.6923077,16.685659 c -0.2820559,-1.64e-4 -0.3935874,0.02301 -0.4849075,0.100779 -0.049716,0.04234 -0.052828,0.147045 -0.007,0.235659 0.046781,0.09047 0.2566768,0.27785 0.4611688,0.41171 0.3434014,0.22479 0.6033618,0.494748 0.8680725,0.901456 0.1201105,0.184541 0.1905897,0.32238 0.4887533,0.955876 0.125982,0.267669 0.2605276,0.450322 0.4975953,0.675514 0.7151093,0.679283 1.8213095,0.915916 3.1745973,0.679093 0.1428663,-0.025 0.2676441,-0.04557 0.2772839,-0.0457 0.00964,-1.4e-4 0.017527,0.523688 0.017527,1.164047 0,1.296776 -0.00172,1.312991 -0.1556275,1.466899 -0.1340025,0.134003 -0.3461287,0.189981 -0.5688127,0.150108 z"
     id="path254" />
</svg>
