<?xml version="1.0" encoding="UTF-8"?>
<svg version="1.1" xmlns="http://www.w3.org/2000/svg" width="192" height="192">
  <path
    d="M0 0 C2.88604065 3.10804378 4.28315145 5.8165477 4.6875 10 C4.00498093 22.38875533 -5.99617706 33.46205901 -13.29052734 42.79589844 C-16.35032022 46.74102984 -19.32484783 50.75014418 -22.3125 54.75 C-23.56994576 56.42735832 -24.82776255 58.10443857 -26.0859375 59.78125 C-26.72112305 60.62816406 -27.35630859 61.47507812 -28.01074219 62.34765625 C-33.67382813 69.8984375 -39.33691406 77.44921875 -45 85 C-41.9143196 83.97143987 -39.55505357 82.63983193 -36.765625 80.97265625 C-35.20352295 80.03945557 -35.20352295 80.03945557 -33.60986328 79.08740234 C-32.5011084 78.41918457 -31.39235352 77.7509668 -30.25 77.0625 C-29.68343689 76.72164368 -29.11687378 76.38078735 -28.53314209 76.02960205 C-20.17022555 70.99315148 -11.92633388 65.83103976 -3.88574219 60.29394531 C-1.77825953 58.84784769 0.34081933 57.41969176 2.4609375 55.9921875 C18.59284012 45.09584471 34.34331506 33.82984885 49 21 C49.75539062 20.36707031 50.51078125 19.73414062 51.2890625 19.08203125 C56.89797833 14.35018527 62.03004069 9.06460145 66.3671875 3.12890625 C68.61596213 0.06439964 69.85583143 -0.95700236 73.5625 -2.0625 C77 -2 77 -2 79.4375 -1.125 C81.57473719 1.78164258 81.75194254 3.85660525 81.55078125 7.42578125 C77.64951328 25.65936702 54.00629386 40.48752715 39.46484375 49.9921875 C34.68573425 53.0646148 29.8515375 56.04363985 25 59 C23.8251001 59.71857178 23.8251001 59.71857178 22.62646484 60.45166016 C0.95914311 73.67217135 -21.14350351 86.16274359 -43.32299805 98.4987793 C-46.55957258 100.31379953 -49.78000931 102.15572215 -53 104 C-51.47789917 103.89606934 -51.47789917 103.89606934 -49.92504883 103.79003906 C-39.94578659 103.13818941 -29.9963646 102.78525276 -19.99584961 102.75976562 C-17.67071431 102.74992899 -15.34641944 102.71867123 -13.02148438 102.6875 C8.41498469 102.53591625 8.41498469 102.53591625 15.3125 108.25 C17 111 17 111 16.875 114.75 C16 118 16 118 15 119 C10.78401915 119.45578171 9.25194264 118.54058019 6 116 C-9.19640005 112.16421682 -27.63827401 114.91204871 -43 117 C-44.65757324 117.2180127 -44.65757324 117.2180127 -46.34863281 117.44042969 C-49.88805678 117.9304135 -53.41120643 118.48604176 -56.9375 119.0625 C-58.04585205 119.2174292 -59.1542041 119.3723584 -60.29614258 119.53198242 C-66.10446318 120.54575921 -66.10446318 120.54575921 -70.86279297 123.79760742 C-72.45959784 126.12474396 -73.73512039 128.47757959 -75 131 C-76.04443614 132.82821836 -77.0913922 134.65499901 -78.140625 136.48046875 C-79.18147539 138.38041298 -80.21790225 140.28278694 -81.25 142.1875 C-81.77851562 143.14591797 -82.30703125 144.10433594 -82.8515625 145.09179688 C-85.34664859 149.67350953 -87.4388036 154.00576459 -89 159 C-91 161 -91 161 -93.4375 161.3125 C-96.48213799 160.94120268 -97.13446634 160.36157151 -99 158 C-99.44168045 149.31361774 -94.95990111 142.2903021 -90.98144531 134.85009766 C-89.60602191 132.25732191 -88.30103355 129.6307062 -87 127 C-89.31 126.34 -91.62 125.68 -94 125 C-94.9375 121.875 -94.9375 121.875 -95 118 C-92.68492099 115.40259428 -90.85222722 113.91329528 -88 112 C-87.44634766 111.62488281 -86.89269531 111.24976563 -86.32226562 110.86328125 C-74.65137027 103 -74.65137027 103 -72 103 C-71.73678955 102.28859863 -71.4735791 101.57719727 -71.20239258 100.84423828 C-69.94343289 97.8661915 -68.45018358 95.24870122 -66.76171875 92.4921875 C-65.7886377 90.90265259 -65.7886377 90.90265259 -64.79589844 89.28100586 C-64.09361872 88.14534899 -63.39080712 87.01002089 -62.6875 85.875 C-62.3306311 85.29686554 -61.97376221 84.71873108 -61.6060791 84.12307739 C-55.0556082 73.52308154 -48.17377241 63.18803949 -41 53 C-39.9946149 51.56262362 -38.98940523 50.12512452 -37.984375 48.6875 C-33.85969439 42.80547544 -29.70167873 36.95033329 -25.46484375 31.1484375 C-24.5821582 29.93716187 -24.5821582 29.93716187 -23.68164062 28.70141602 C-22.55039731 27.15197371 -21.41521084 25.60539965 -20.27539062 24.06225586 C-17.43830089 20.17812377 -15.00293138 16.40090458 -13 12 C-40.56832661 16.66984735 -72.7169841 24.00676256 -95 42 C-95.33 42.99 -95.66 43.98 -96 45 C-89.56901338 49.96427037 -82.55327858 53.13748 -75.12158203 56.28320312 C-74.36087402 56.60740234 -73.60016602 56.93160156 -72.81640625 57.265625 C-72.13006104 57.55211914 -71.44371582 57.83861328 -70.73657227 58.13378906 C-69 59 -69 59 -67 61 C-66.64564954 63.76393359 -66.68109936 65.4020613 -68 67.875 C-71.24251637 69.69891546 -74.50702373 68.74441693 -78 68 C-81.23051047 66.95509838 -84.32594701 65.66756135 -87.4375 64.3125 C-88.69046875 63.77338989 -88.69046875 63.77338989 -89.96875 63.22338867 C-96.72172626 60.2517885 -103.01542692 57.25589791 -108.0625 51.75 C-109.75545594 46.78399591 -109.96902882 41.90708645 -108.296875 36.890625 C-98.42773989 18.4780595 -68.21489184 10.74733796 -50 5 C-11.08407131 -6.27400263 -11.08407131 -6.27400263 0 0 Z "
    fill="#989719"
    transform="translate(111,18)"
  />
</svg>
