<?xml version="1.0" encoding="UTF-8" standalone="no"?>
<svg
   width="24"
   height="24"
   viewBox="0 0 24 24"
   version="1.1"
   id="svg316"
   sodipodi:docname="key.invert.svg"
   inkscape:version="1.2 (dc2aedaf03, 2022-05-15)"
   xmlns:inkscape="http://www.inkscape.org/namespaces/inkscape"
   xmlns:sodipodi="http://sodipodi.sourceforge.net/DTD/sodipodi-0.dtd"
   xmlns="http://www.w3.org/2000/svg"
   xmlns:svg="http://www.w3.org/2000/svg">
  <defs
     id="defs320" />
  <sodipodi:namedview
     id="namedview318"
     pagecolor="#ffffff"
     bordercolor="#666666"
     borderopacity="1.0"
     inkscape:showpageshadow="2"
     inkscape:pageopacity="0.0"
     inkscape:pagecheckerboard="0"
     inkscape:deskcolor="#d1d1d1"
     showgrid="false"
     inkscape:zoom="42.791667"
     inkscape:cx="23.380721"
     inkscape:cy="11.976631"
     inkscape:window-width="1142"
     inkscape:window-height="1394"
     inkscape:window-x="10"
     inkscape:window-y="32"
     inkscape:window-maximized="1"
     inkscape:current-layer="svg316" />
  <path
     d="M12.451 17.337l-2.451 2.663h-2v2h-2v2h-6v-1.293l7.06-7.06c-.214-.26-.413-.533-.599-.815l-6.461 6.461v-2.293l6.865-6.949c1.08 2.424 3.095 4.336 5.586 5.286zm11.549-9.337c0 4.418-3.582 8-8 8s-8-3.582-8-8 3.582-8 8-8 8 3.582 8 8zm-3-3c0-1.104-.896-2-2-2s-2 .896-2 2 .896 2 2 2 2-.896 2-2z"
     id="path314" />
  <path
     style="fill:#ffffff;stroke-width:0.023369"
     d="M 15.64557,15.982279 C 14.942452,15.930143 14.590511,15.878106 14.074837,15.750035 11.454671,15.099299 9.3245412,13.146634 8.4456537,10.58983 8.23336,9.9722384 8.0901384,9.2827775 8.0371205,8.6231743 8.0030261,8.1990004 8.0216633,7.3834154 8.0742048,7.0003296 8.2822009,5.4838053 8.8381404,4.1790868 9.7824762,2.9912366 10.042485,2.6641802 10.661986,2.045036 10.995131,1.7792806 12.211209,0.80919589 13.575747,0.24328945 15.15482,0.054158 15.538555,0.00819661 16.5715,0.0159113 16.954236,0.06759718 17.93777,0.20041686 18.679555,0.42381292 19.52483,0.84175763 20.175588,1.1635242 20.667929,1.4865588 21.189873,1.9342259 l 0.239533,0.2054449 v 5.861581 5.8615812 l -0.258548,0.219508 c -1.217169,1.033381 -2.694886,1.673909 -4.275045,1.853052 -0.318132,0.03607 -1.034069,0.06292 -1.250243,0.04689 z M 19.384304,6.9726085 C 20.356838,6.799874 21.059082,5.8953841 21.001808,4.8892648 20.984225,4.5803794 20.93714,4.4004967 20.798605,4.1129503 20.463363,3.4171146 19.785603,2.9967178 18.999026,2.9967178 c -1.173742,0 -2.074882,0.9589797 -2.002477,2.131007 0.07494,1.2130399 1.172148,2.0607912 2.387755,1.8448837 z"
     id="path376" />
  <path
     style="fill:#ffffff;stroke-width:0.023369"
     d="M 2.6407011,22.042889 V 20.097462 L 4.8601636,17.877358 7.0796261,15.657254 6.8173204,15.304569 C 6.6730521,15.110592 6.5322041,14.921303 6.5043246,14.883926 l -0.05069,-0.06796 -1.9064666,1.904523 -1.9064667,1.904522 v -1.141905 -1.141905 l 1.0102601,-1.019677 c 2.5579014,-2.581745 2.9399179,-2.968496 3.0666217,-3.104628 l 0.1352558,-0.145321 0.182733,0.367327 c 0.7786243,1.565179 1.9606911,2.907204 3.4103871,3.871884 0.580018,0.385965 1.198852,0.717252 1.766985,0.945937 l 0.212944,0.08572 -1.217813,1.324483 -1.2178119,1.324484 -0.9990263,4.01e-4 -0.9990263,4.01e-4 v 0.993184 0.993184 H 6.9873418 5.9824732 v 1.004869 1.004868 H 4.3115871 2.6407011 Z"
     id="path378" />
  <path
     style="fill:#ffffff;stroke-width:0.023369"
     d="m 0,23.363116 v -0.625199 l 1.3203505,-1.320195 1.3203506,-1.320196 v 1.945395 1.945394 H 1.3203505 0 Z"
     id="path380" />
  <path
     style="fill:#ffffff;stroke-width:0.023369"
     d="m 0,20.143833 v -1.121835 l 1.3190756,-1.331836 1.3190757,-1.331837 0.00127,1.133476 0.00127,1.133476 L 1.3203505,19.945472 0,21.265668 Z"
     id="path382" />
  <path
     style="fill:#ffffff;stroke-width:0.023369"
     d="m 21.4301,8.0086359 -6.94e-4,-5.8492025 0.09027,0.072545 c 0.117314,0.094277 0.56493,0.5871846 0.763768,0.8410498 0.20992,0.2680149 0.561172,0.7993962 0.722699,1.0933131 1.248844,2.2724149 1.304294,5.0641047 0.146545,7.3779627 -0.39039,0.780228 -0.839052,1.411847 -1.435888,2.021421 l -0.286008,0.292113 z"
     id="path384" />
</svg>
