<?xml version="1.0" encoding="UTF-8" standalone="no"?>
<svg
   width="24"
   height="24"
   viewBox="0 0 24 24"
   version="1.1"
   id="svg457"
   sodipodi:docname="linkedin.invert.svg"
   inkscape:version="1.2 (dc2aedaf03, 2022-05-15)"
   xmlns:inkscape="http://www.inkscape.org/namespaces/inkscape"
   xmlns:sodipodi="http://sodipodi.sourceforge.net/DTD/sodipodi-0.dtd"
   xmlns="http://www.w3.org/2000/svg"
   xmlns:svg="http://www.w3.org/2000/svg">
  <defs
     id="defs461" />
  <sodipodi:namedview
     id="namedview459"
     pagecolor="#ffffff"
     bordercolor="#666666"
     borderopacity="1.0"
     inkscape:showpageshadow="2"
     inkscape:pageopacity="0.0"
     inkscape:pagecheckerboard="0"
     inkscape:deskcolor="#d1d1d1"
     showgrid="false"
     inkscape:zoom="20.125"
     inkscape:cx="12"
     inkscape:cy="11.950311"
     inkscape:window-width="1142"
     inkscape:window-height="1394"
     inkscape:window-x="10"
     inkscape:window-y="32"
     inkscape:window-maximized="1"
     inkscape:current-layer="svg457" />
  <path
     d="M19 0h-14c-2.761 0-5 2.239-5 5v14c0 2.761 2.239 5 5 5h14c2.762 0 5-2.239 5-5v-14c0-2.761-2.238-5-5-5zm-11 19h-3v-11h3v11zm-1.5-12.268c-.966 0-1.75-.79-1.75-1.764s.784-1.764 1.75-1.764 1.75.79 1.75 1.764-.783 1.764-1.75 1.764zm13.5 12.268h-3v-5.604c0-3.368-4-3.113-4 0v5.604h-3v-11h3v1.765c1.396-2.586 7-2.777 7 2.476v6.759z"
     id="path455" />
  <path
     style="fill:#ffffff;stroke-width:0.0496894"
     d="M 4.1962536,23.903087 C 2.5216016,23.596285 1.2046702,22.591223 0.49667593,21.079625 0.23308235,20.516842 0.10599586,20.02638 0.04954819,19.354037 c -0.06355031,-0.756942 -0.06355031,-13.9511322 0,-14.7080743 C 0.10599586,3.9736198 0.23308235,3.4831584 0.49667593,2.9203749 1.1503349,1.524785 2.3403334,0.54870713 3.8605227,0.16123133 L 4.2981366,0.04968944 H 12 19.701863 l 0.437614,0.11154189 c 1.52019,0.3874758 2.710188,1.36355367 3.363847,2.75914357 0.263594,0.5627835 0.39068,1.0532449 0.447128,1.7255878 0.06355,0.7569421 0.06355,13.9511323 0,14.7080743 -0.05645,0.672343 -0.183534,1.162805 -0.447128,1.725588 -0.64102,1.368605 -1.788585,2.327458 -3.279151,2.739908 l -0.47262,0.130778 -7.602485,0.0085 c -6.028191,0.0067 -7.6750292,-0.0048 -7.9528144,-0.0557 z M 8,13.490683 V 7.9751553 H 6.484472 4.9689441 v 5.5155277 5.515528 H 6.484472 8 Z m 5.019496,2.571429 c 9.49e-4,-3.230943 0.01072,-3.36106 0.296141,-3.942334 0.183462,-0.373632 0.594254,-0.772881 0.982368,-0.954765 0.247578,-0.116023 0.349042,-0.133957 0.757896,-0.133957 0.414582,0 0.505982,0.01666 0.750781,0.136884 0.336151,0.165083 0.755601,0.593519 0.899455,0.918723 0.257786,0.582769 0.253758,0.526663 0.274714,3.82638 l 0.01964,3.093168 h 1.512174 1.512175 l -2.98e-4,-3.614907 c -2.99e-4,-3.921587 -0.01517,-4.19028 -0.274666,-4.96902 C 19.454934,9.5371429 18.80252,8.761686 18.037267,8.3866723 17.411895,8.0802072 17.081169,8.0061555 16.322981,8.0028318 c -0.800694,-0.00351 -1.199005,0.086028 -1.897357,0.4265143 -0.388418,0.1893754 -0.585887,0.324085 -0.849483,0.5794991 -0.188887,0.1830236 -0.390889,0.3998505 -0.448894,0.481838 l -0.105465,0.1490684 -0.0016,-0.8322982 -0.0016,-0.8322981 H 11.503106 9.9875776 v 5.5155277 5.515528 h 1.5155284 1.515528 l 8.64e-4,-2.944099 z M 7.2936224,6.5666857 C 8.5604527,5.9139056 8.5908686,4.0688434 7.3457804,3.4026978 7.0692278,3.2547369 6.9768159,3.2319631 6.5838509,3.2149284 6.2151717,3.1989466 6.0868989,3.2142894 5.8533352,3.3023055 5.4615836,3.4499333 5.1093307,3.7802831 4.9083513,4.1885293 4.7603449,4.4891735 4.7454135,4.5609059 4.746123,4.9678991 4.7467799,5.344566 4.767333,5.4597923 4.8748268,5.689441 5.0326663,6.0266475 5.2126037,6.2434589 5.4970291,6.4391488 5.8555677,6.6858296 6.0362932,6.7330688 6.5590062,6.7167339 6.9578191,6.7042709 7.0717923,6.6809919 7.2936224,6.5666857 Z"
     id="path463" />
</svg>
